<svg width="28" height="28" viewBox="0 0 28 28" fill="none" xmlns="http://www.w3.org/2000/svg">
<path d="M26.9436 14C26.9436 21.1816 21.134 27 13.9718 27C6.80958 27 1 21.1816 1 14C1 6.8184 6.80958 1 13.9718 1C21.134 1 26.9436 6.8184 26.9436 14Z" fill="#F0F0F0" stroke="#FFD718" stroke-width="2"/>
<g clip-path="url(#clip0_7076_361555)">
<path d="M13.5232 7.57037L11.6494 9.9177H8.45686C8.36022 9.91775 8.26512 9.9419 8.18012 9.98798C8.09513 10.0341 8.02292 10.1006 7.97001 10.1817C7.9171 10.2627 7.88515 10.3556 7.87705 10.4521C7.86895 10.5486 7.88494 10.6456 7.9236 10.7344L9.32078 14.001L7.9236 17.2677C7.88574 17.3564 7.87041 17.4531 7.879 17.5492C7.88759 17.6452 7.91982 17.7377 7.97281 17.8182C8.0258 17.8988 8.0979 17.9649 8.18265 18.0106C8.26739 18.0564 8.36214 18.0804 8.45841 18.0805H11.6494L13.5232 20.4278C13.5778 20.4961 13.6471 20.5512 13.7258 20.589C13.8045 20.6269 13.8907 20.6466 13.9781 20.6466C14.0654 20.6466 14.1516 20.6269 14.2303 20.589C14.309 20.5512 14.3783 20.4961 14.4329 20.4278L16.3067 18.0844H19.3789C19.4808 18.0844 19.5811 18.0575 19.6694 18.0065C19.7577 17.9555 19.8312 17.8821 19.8823 17.7938C19.9335 17.7054 19.9605 17.6052 19.9609 17.503C19.9612 17.4009 19.9348 17.3004 19.8842 17.2117L18.0532 14.001L19.8842 10.7904C19.9348 10.7017 19.9612 10.6012 19.9609 10.4991C19.9605 10.3969 19.9335 10.2966 19.8823 10.2083C19.8312 10.1199 19.7577 10.0466 19.6694 9.99559C19.5811 9.94459 19.4808 9.91773 19.3789 9.9177H16.3067L14.4329 7.57037C14.3783 7.50209 14.309 7.44697 14.2303 7.4091C14.1516 7.37122 14.0654 7.35156 13.9781 7.35156C13.8907 7.35156 13.8045 7.37122 13.7258 7.4091C13.6471 7.44697 13.5778 7.50209 13.5232 7.57037Z" stroke="#0066FF" stroke-width="1.5" stroke-linecap="round" stroke-linejoin="round"/>
<path d="M13.9809 15.75C14.9454 15.75 15.7273 14.9665 15.7273 14C15.7273 13.0335 14.9454 12.25 13.9809 12.25C13.0163 12.25 12.2344 13.0335 12.2344 14C12.2344 14.9665 13.0163 15.75 13.9809 15.75Z" stroke="#0066FF" stroke-width="1.5" stroke-linecap="round" stroke-linejoin="round"/>
<path d="M6.1192 9.33724C5.95844 9.33724 5.82812 9.20666 5.82812 9.04557C5.82812 8.88449 5.95844 8.75391 6.1192 8.75391" stroke="#0066FF" stroke-width="1.5"/>
<path d="M6.11719 9.33724C6.27795 9.33724 6.40827 9.20666 6.40827 9.04557C6.40827 8.88449 6.27795 8.75391 6.11719 8.75391" stroke="#0066FF" stroke-width="1.5"/>
<path d="M21.838 9.33333C21.6772 9.33333 21.5469 9.20275 21.5469 9.04167C21.5469 8.88058 21.6772 8.75 21.838 8.75" stroke="#0066FF" stroke-width="1.5"/>
<path d="M21.8359 9.33333C21.9967 9.33333 22.127 9.20275 22.127 9.04167C22.127 8.88058 21.9967 8.75 21.8359 8.75" stroke="#0066FF" stroke-width="1.5"/>
<path d="M6.1192 19.2513C5.95844 19.2513 5.82812 19.1207 5.82812 18.9596C5.82812 18.7986 5.95844 18.668 6.1192 18.668" stroke="#0066FF" stroke-width="1.5"/>
<path d="M6.11719 19.2513C6.27795 19.2513 6.40827 19.1207 6.40827 18.9596C6.40827 18.7986 6.27795 18.668 6.11719 18.668" stroke="#0066FF" stroke-width="1.5"/>
<path d="M21.838 19.2513C21.6772 19.2513 21.5469 19.1207 21.5469 18.9596C21.5469 18.7986 21.6772 18.668 21.838 18.668" stroke="#0066FF" stroke-width="1.5"/>
<path d="M21.8359 19.2513C21.9967 19.2513 22.127 19.1207 22.127 18.9596C22.127 18.7986 21.9967 18.668 21.8359 18.668" stroke="#0066FF" stroke-width="1.5"/>
<path d="M13.9786 22.7474C13.8178 22.7474 13.6875 22.6168 13.6875 22.4557C13.6875 22.2947 13.8178 22.1641 13.9786 22.1641" stroke="#0066FF" stroke-width="1.5"/>
<path d="M13.9766 22.7474C14.1373 22.7474 14.2676 22.6168 14.2676 22.4557C14.2676 22.2947 14.1373 22.1641 13.9766 22.1641" stroke="#0066FF" stroke-width="1.5"/>
<path d="M13.9786 5.83333C13.8178 5.83333 13.6875 5.70275 13.6875 5.54167C13.6875 5.38058 13.8178 5.25 13.9786 5.25" stroke="#0066FF" stroke-width="1.5"/>
<path d="M13.9766 5.83333C14.1373 5.83333 14.2676 5.70275 14.2676 5.54167C14.2676 5.38058 14.1373 5.25 13.9766 5.25" stroke="#0066FF" stroke-width="1.5"/>
</g>
<defs>
<clipPath id="clip0_7076_361555">
<rect width="18.6291" height="18.6667" fill="white" transform="translate(4.66406 4.66797)"/>
</clipPath>
</defs>
</svg>
